<svg width="838" height="181" viewBox="0 0 838 181" fill="none" xmlns="http://www.w3.org/2000/svg">
<path d="M414.167 62.8545V69.439C408.973 64.3749 402.137 61.334 394.409 61.334C377.06 61.334 363.757 75.6465 363.757 93.377C363.757 111.107 377.051 125.169 394.409 125.169C402.137 125.169 408.973 122.128 414.167 117.064V123.652H426.577V62.8586H414.167V62.8545ZM411.335 103.082C405.408 112.523 394.204 115.359 385.303 109.767C376.402 104.179 374.019 92.9623 379.946 83.5253C385.873 74.0842 397.14 71.1396 406.045 76.7314C414.946 82.319 417.258 93.645 411.335 103.082Z" fill="#1C1C1C"/>
<path d="M680.001 62.8545V69.439C674.807 64.3749 667.972 61.334 660.244 61.334C642.894 61.334 629.591 75.6465 629.591 93.377C629.591 111.107 642.886 125.169 660.244 125.169C667.972 125.169 674.807 122.128 680.001 117.064V123.652H692.412V62.8586H680.001V62.8545ZM677.174 103.082C671.247 112.523 660.043 115.359 651.142 109.767C642.241 104.179 639.858 92.9623 645.785 83.5253C651.711 74.0842 662.983 71.1396 671.884 76.7314C680.785 82.319 683.097 93.645 677.174 103.082Z" fill="#1C1C1C"/>
<path d="M475.718 87.3979C475.718 81.7013 474.453 78.9117 472.551 76.8844C470.65 74.8571 467.739 73.7178 464.572 73.7178C461.406 73.7178 458.494 74.8571 456.593 76.8844C454.695 78.9117 453.426 81.6971 453.426 87.3979V123.617H440.509V62.8232H452.664V67.1291C456.082 63.5813 461.02 61.3027 466.721 61.3027C473.687 61.3027 479.894 64.595 483.819 69.659C487.999 64.595 494.458 61.3027 501.93 61.3027C509.403 61.3027 515.229 64.595 519.28 69.9145C522.065 73.7136 523.837 78.5264 523.837 86.2544V123.617H510.919V87.3979C510.919 81.7013 509.654 78.9117 507.753 76.8844C505.851 74.8571 502.94 73.7178 499.773 73.7178C496.607 73.7178 493.696 74.8571 491.794 76.8844C489.896 78.9117 488.627 81.6971 488.627 87.3979V123.617H475.71V87.3979H475.718Z" fill="#1C1C1C"/>
<path d="M572.307 87.3979C572.307 81.7013 571.043 78.9117 569.141 76.8844C567.239 74.8571 564.328 73.7178 561.162 73.7178C557.995 73.7178 555.084 74.8571 553.182 76.8844C551.285 78.9117 550.016 81.6971 550.016 87.3979V123.617H537.098V62.8232H549.253V67.1291C552.671 63.5813 557.61 61.3027 563.31 61.3027C570.276 61.3027 576.484 64.595 580.408 69.659C584.589 64.595 591.047 61.3027 598.52 61.3027C605.992 61.3027 611.819 64.595 615.869 69.9145C618.655 73.7136 620.426 78.5264 620.426 86.2544V123.617H607.509V87.3979C607.509 81.7013 606.244 78.9117 604.342 76.8844C602.44 74.8571 599.529 73.7178 596.363 73.7178C593.196 73.7178 590.285 74.8571 588.383 76.8844C586.486 78.9117 585.217 81.6971 585.217 87.3979V123.617H572.299V87.3979H572.307Z" fill="#1C1C1C"/>
<path d="M753.75 25.1074H766.668V123.641H753.75V25.1074Z" fill="#1C1C1C"/>
<path d="M293.463 62.8545V69.439C288.269 64.3749 281.433 61.334 273.705 61.334C256.356 61.334 243.053 75.391 243.053 93.1256C243.053 110.86 256.352 125.169 273.705 125.169C281.303 125.169 288.143 122.253 293.207 117.315V123.648C293.207 134.04 286.736 141.877 277.085 143.155C269.546 144.151 261.261 141.994 255.979 137.655C255.342 137.127 254.756 136.57 254.216 135.988L247.434 147.029C247.602 147.171 247.765 147.314 247.928 147.452C254.626 152.956 264.017 156.072 273.378 156.072C275.175 156.072 276.968 155.959 278.744 155.72C294.728 153.609 305.865 140.415 305.865 123.648V62.8545H293.454H293.463ZM274.974 112.754C264.461 112.754 256.486 104.267 256.486 93.1256C256.486 81.9839 264.465 73.7449 274.974 73.7449C285.484 73.7449 293.463 82.1012 293.463 93.2513C293.463 104.401 285.484 112.754 274.974 112.754Z" fill="#1C1C1C"/>
<path d="M824.881 62.6387L805.739 106.062L788.088 62.6387H775.133L798.999 121.355L783.941 155.513H797.06L805.295 136.836L812.034 121.543L838 62.6387H824.881Z" fill="#1C1C1C"/>
<path d="M359.308 64.3285C354.826 62.3515 349.896 61.5305 345.066 62.519C340.786 63.3986 336.819 65.5516 333.736 68.6386C333.099 69.2753 332.471 69.9036 331.96 70.6659V62.8122H319.805V123.606H332.722V93.3347C332.722 86.2434 334.498 82.1888 337.405 79.2777C340.446 76.2368 344.622 74.465 349.439 74.465C350.935 74.465 354.788 74.8839 358.968 77.5897L365.109 67.5915C363.283 66.3349 361.335 65.2207 359.308 64.3285Z" fill="#1C1C1C"/>
<path d="M731.613 62.4204C727.332 63.3 723.366 65.4529 720.283 68.5399C719.646 69.1766 719.014 69.8049 718.503 70.5631V62.7094H706.347V123.503H719.269V93.2319C719.269 86.1406 721.041 82.086 723.952 79.1749C726.993 76.1339 731.165 74.3621 735.986 74.3621C737.481 74.3621 741.033 74.3956 745.482 76.1214V64.0958C741.1 62.2361 736.313 61.4486 731.613 62.412V62.4204Z" fill="#1C1C1C"/>
<path d="M0 90.3494C0 40.4419 40.4453 -0.00341797 90.3526 -0.00341797C140.26 -0.00341797 180.697 40.4419 180.697 90.3494C180.697 134.012 149.743 170.432 108.573 178.863C102.692 180.07 96.5978 180.694 90.3777 180.694H0V90.3452V90.3494Z" fill="#027E6F"/>
<path d="M152.872 81.7891H112.158L102.571 98.397H136.142C130.882 127.282 98.759 146.947 66.6574 130.314C59.7546 126.741 54.1335 121.217 50.5019 114.314C32.0343 79.1545 57.2624 43.7815 90.5535 43.7815C104.28 43.7815 116.64 49.7922 125.131 59.3213L133.734 44.4182C121.478 32.8157 104.56 26.0595 86.1136 27.3579C54.7073 29.5235 29.2447 55.5557 27.7159 86.9914C25.9734 123.085 54.8246 152.987 90.5326 152.987C126.241 152.987 153.437 124.76 153.437 90.0784C153.437 87.2594 153.224 84.4949 152.868 81.7891H152.872Z" fill="white"/>
</svg>
