<svg viewBox="0 0 130 36" xmlns="http://www.w3.org/2000/svg">
    <path d="M111.557 31.5032V4.63959H115.802V22.3686L124.779 12.0515H129.925L121.849 20.8932L130 31.5032H124.929L118.327 22.3866L115.802 22.3686V31.5032H111.557Z"></path>
    <path d="M98.685 31.9547C92.3746 31.9547 88.9564 27.4774 88.9564 21.7586C88.9564 16.0021 92.3746 11.5624 98.685 11.5624C105.033 11.5624 108.414 16.0021 108.414 21.7586C108.414 27.4774 105.033 31.9547 98.685 31.9547ZM93.3888 21.7586C93.3888 26.1982 95.7927 28.418 98.685 28.418C101.615 28.418 103.981 26.1982 103.981 21.7586C103.981 17.3189 101.615 15.0615 98.685 15.0615C95.7927 15.0615 93.3888 17.3189 93.3888 21.7586Z"></path>
    <path d="M77.1433 31.5032V15.1367L80.7117 12.0515H88.2992V15.6635H81.3878V31.5032H77.1433Z"></path>
    <path d="M60.9137 32C52.8235 32 48 26.123 48 18.1091C48 10.0199 52.9958 4 61.0716 4C67.382 4 72.0021 7.23567 73.0914 13.2555H68.2459C67.5322 9.83174 64.6775 7.91291 61.0716 7.91291C55.2495 7.91291 52.6953 12.9545 52.6953 18.1091C52.6953 23.2636 55.2495 28.2676 61.0716 28.2676C66.6308 28.2676 69.0723 24.2418 69.2601 20.8932H60.8838V16.9975H73.5422L73.5215 19.0343C73.5215 26.603 70.4384 32 60.9137 32Z"></path>
    <path fill-rule="evenodd" clip-rule="evenodd" d="M0 7.71428C0 3.4538 3.4538 0 7.71429 0H28.2857C32.5462 0 36 3.4538 36 7.71429V28.2857C36 32.5462 32.5462 36 28.2857 36H7.71428C3.4538 36 0 32.5462 0 28.2857V7.71428ZM7.00488 14.6445L18.0771 30.4574H22.9984L11.9258 14.6445H7.00488ZM7 30.4575L11.9226 23.4272L14.3848 26.944L11.9246 30.4575H7ZM24.1238 6L15.6143 18.1529L18.0765 21.6693L29.0483 6H24.1238ZM25.0156 30.457V13.5188L29.0496 7.75793V30.457H25.0156Z"></path>
</svg>