<?xml version="1.0" encoding="UTF-8"?>
<svg id="Layer_2" data-name="Layer 2" xmlns="http://www.w3.org/2000/svg" viewBox="0 0 214.5 64.66">
  <defs>
    <style>
      .cls-1 {
        fill: #565add;
      }

      .cls-1, .cls-2 {
        stroke-width: 0px;
      }

      .cls-2 {
        fill: #212121;
      }
    </style>
  </defs>
  <g id="Layer_1-2" data-name="Layer 1">
    <path class="cls-2" d="M82.16,55.98V8.68h8.69v47.3h-8.69Z"/>
    <path class="cls-2" d="M165.46,23.84h8.29v3.92c1.76-3.14,5.88-4.84,9.4-4.84,4.38,0,7.9,1.9,9.53,5.36,2.55-3.92,5.94-5.36,10.19-5.36,5.94,0,11.62,3.59,11.62,12.22v20.84h-8.42v-19.08c0-3.46-1.7-6.08-5.68-6.08-3.72,0-5.94,2.88-5.94,6.34v18.82h-8.62v-19.08c0-3.46-1.76-6.08-5.68-6.08s-6.01,2.81-6.01,6.34v18.82h-8.68V23.84Z"/>
    <path class="cls-2" d="M110.48,56.91c-9.78,0-16.87-7.26-16.87-17s7.06-17.02,16.87-17.02,16.87,7.5,16.87,17.02-7.09,17-16.87,17ZM110.48,30.76c-5.05,0-9.15,4.11-9.15,9.15s4.1,9.15,9.15,9.15,9.15-4.1,9.15-9.15-4.1-9.15-9.15-9.15Z"/>
    <path class="cls-2" d="M145.9,56.91c-9.78,0-16.87-7.26-16.87-17s7.06-17.02,16.87-17.02,16.87,7.5,16.87,17.02-7.09,17-16.87,17ZM145.9,30.65c-5.1,0-9.26,4.16-9.26,9.26s4.15,9.26,9.26,9.26,9.26-4.15,9.26-9.26c0-5.1-4.15-9.26-9.26-9.26Z"/>
    <path class="cls-1" d="M64.66,28.74h-18.91l16.38-9.45-3.6-6.23-16.38,9.45,9.45-16.37-6.23-3.6-9.45,16.37V0h-7.19v18.91L19.28,2.53l-6.23,3.6,9.45,16.37L6.13,13.05l-3.6,6.23,16.38,9.45H0v7.19h18.91L2.53,45.38l3.6,6.23,16.37-9.45-9.45,16.37,6.23,3.6,9.45-16.38v18.91h7.19v-18.91l9.45,16.37,6.23-3.6-9.45-16.38,16.38,9.45,3.6-6.23-16.37-9.45h18.91v-7.19h0ZM32.33,42.11c-5.42,0-9.82-4.4-9.82-9.82s4.4-9.82,9.82-9.82,9.82,4.4,9.82,9.82-4.4,9.82-9.82,9.82Z"/>
  </g>
</svg>