<?xml version="1.0" encoding="utf-8"?>
<svg xmlns="http://www.w3.org/2000/svg" fill="none" height="32" viewBox="0 0 181 32" width="181">
<g id="Group 55090">
<path d="M16.3933 4.24674C15.6341 4.67515 15.3695 5.35242 15.7443 5.98559C16.1192 6.61875 16.8217 6.71956 17.5682 6.3006C18.3148 5.88163 18.7842 4.95866 18.466 4.41055C18.1479 3.86243 17.1682 3.78682 16.3933 4.24674Z" fill="#0D0D0D" id="Vector"/>
<path d="M16.2704 7.55024C15.6183 7.92195 15.3978 8.49528 15.7034 9.04024C16.009 9.58521 16.6295 9.67025 17.2784 9.30484C17.9274 8.93943 18.3148 8.1582 18.0534 7.68569C17.7919 7.21318 16.9193 7.17538 16.2704 7.55024Z" fill="#0D0D0D" id="Vector_2"/>
<path d="M16.0013 3.55354C15.2421 3.98195 14.5365 3.88744 14.1774 3.23853C13.8183 2.58961 14.0797 1.93755 14.8263 1.49654C15.5729 1.05553 16.584 1.10907 16.9022 1.66349C17.2203 2.2179 16.7636 3.11252 16.0013 3.55354Z" fill="#0D0D0D" id="Vector_3"/>
<path d="M13.0711 2.00534C12.4222 2.3802 11.811 2.28254 11.496 1.74388C11.181 1.20521 11.4141 0.622451 12.063 0.250741C12.712 -0.120969 13.5814 -0.0831676 13.846 0.389345C14.1106 0.861858 13.7231 1.63363 13.0711 2.00534Z" fill="#0D0D0D" id="Vector_4"/>
<path d="M15.0002 32.0001C11.5294 32 8.16606 30.7963 5.48331 28.5942C2.80056 26.3921 0.964422 23.3279 0.287817 19.9237C-0.388788 16.5195 0.136006 12.986 1.77276 9.92537C3.40952 6.86475 6.05696 4.4664 9.2639 3.13904C10.1468 2.77254 11.1292 2.72244 12.0448 2.9972C12.9604 3.27197 13.7529 3.85474 14.2881 4.64681C14.8233 5.43887 15.0684 6.39155 14.9817 7.34355C14.895 8.29555 14.482 9.18835 13.8126 9.87077C13.4121 10.2554 12.9486 10.5687 12.4423 10.7969C12.1273 10.9607 11.7808 11.1119 11.4753 11.2946C10.5278 11.8767 9.73993 12.6853 9.18259 13.6475C8.62524 14.6097 8.31591 15.6955 8.28243 16.807C8.24895 17.9184 8.49237 19.0208 8.99078 20.0149C9.4892 21.0089 10.227 21.8634 11.1377 22.5015C12.0484 23.1395 13.1035 23.5411 14.208 23.6701C15.3124 23.7991 16.4317 23.6515 17.4649 23.2404C18.4982 22.8294 19.413 22.1679 20.127 21.3155C20.8411 20.463 21.332 19.4464 21.5555 18.3571C21.6248 17.9082 21.6711 17.4561 21.6941 17.0026C21.7038 16.5471 21.778 16.0952 21.9146 15.6606C22.2327 14.7315 22.8701 13.9454 23.7134 13.442C24.5566 12.9387 25.5511 12.7509 26.5199 12.9119C27.4886 13.0729 28.3689 13.5724 29.004 14.3214C29.6391 15.0705 29.9879 16.0205 29.9883 17.0026C29.985 20.9775 28.4051 24.7888 25.5953 27.6004C22.7855 30.412 18.9751 31.9943 15.0002 32.0001Z" fill="#0D0D0D" id="Vector_5"/>
<path d="M63.2058 5.71214C63.0739 5.71268 62.9454 5.75462 62.8386 5.83205C62.7318 5.90948 62.652 6.01848 62.6104 6.1437L57.5167 21.4531H57.4443L52.3506 6.14054C52.309 6.01533 52.2292 5.90633 52.1224 5.8289C52.0156 5.75147 51.8872 5.70952 51.7552 5.70898H43.88C43.7129 5.70898 43.5527 5.77535 43.4345 5.8935C43.3164 6.01165 43.25 6.17191 43.25 6.339V28.4211C43.25 28.5882 43.3164 28.7484 43.4345 28.8666C43.5527 28.9847 43.7129 29.0511 43.88 29.0511H48.6744C48.8415 29.0511 49.0018 28.9847 49.1199 28.8666C49.2381 28.7484 49.3045 28.5882 49.3045 28.4211V14.3875C49.3044 14.3447 49.313 14.3024 49.3299 14.2632C49.3467 14.2239 49.3713 14.1884 49.4022 14.159C49.4332 14.1295 49.4698 14.1066 49.5098 14.0918C49.5499 14.0769 49.5925 14.0703 49.6352 14.0725C49.7044 14.0725 49.7719 14.094 49.8284 14.1341C49.8848 14.1742 49.9274 14.2308 49.9502 14.2961L54.7384 28.6353C54.7801 28.761 54.8604 28.8704 54.9678 28.9479C55.0753 29.0254 55.2044 29.067 55.3369 29.0669H59.6241C59.7566 29.067 59.8857 29.0254 59.9932 28.9479C60.1006 28.8704 60.1809 28.761 60.2227 28.6353L65.0108 14.2961C65.034 14.231 65.0767 14.1747 65.1331 14.1347C65.1894 14.0947 65.2567 14.0729 65.3258 14.0725C65.4093 14.0725 65.4895 14.1056 65.5485 14.1647C65.6076 14.2238 65.6408 14.3039 65.6408 14.3875V28.4242C65.6408 28.5913 65.7072 28.7516 65.8253 28.8697C65.9435 28.9879 66.1037 29.0543 66.2708 29.0543H71.0589C71.226 29.0543 71.3863 28.9879 71.5044 28.8697C71.6226 28.7516 71.689 28.5913 71.689 28.4242V6.34215C71.689 6.17506 71.6226 6.01481 71.5044 5.89666C71.3863 5.7785 71.226 5.71214 71.0589 5.71214H63.2058Z" fill="#0D0D0D" id="Vector_6"/>
<path d="M100.651 20.585C100.651 23.1964 102.336 24.7998 104.214 24.7998C104.832 24.8061 105.444 24.6791 106.009 24.4274C106.574 24.1757 107.078 23.8053 107.487 23.3413C107.592 23.2258 107.736 23.1535 107.891 23.1384C108.047 23.1233 108.202 23.1664 108.328 23.2594L111.289 25.4644C111.358 25.5159 111.417 25.5811 111.46 25.6561C111.503 25.731 111.531 25.8141 111.54 25.9001C111.55 25.9862 111.542 26.0733 111.517 26.156C111.491 26.2388 111.449 26.3154 111.393 26.3811C109.638 28.4255 107.2 29.5312 104.043 29.5312H103.744C98.723 29.5312 94.6562 25.7921 94.6562 20.837V20.0809C94.6562 15.1259 98.723 11.3867 103.744 11.3867H104.043C107.194 11.3867 109.638 12.5018 111.393 14.5368C111.448 14.6025 111.49 14.6789 111.515 14.7613C111.54 14.8438 111.548 14.9305 111.539 15.0161C111.529 15.1017 111.502 15.1844 111.459 15.2591C111.416 15.3338 111.358 15.3989 111.289 15.4503L108.328 17.6554C108.203 17.7488 108.047 17.7924 107.892 17.7778C107.737 17.7633 107.592 17.6916 107.487 17.5766C107.078 17.1126 106.574 16.7422 106.009 16.4905C105.444 16.2388 104.832 16.1118 104.214 16.1181C102.324 16.1181 100.651 17.7184 100.651 20.3298V20.585Z" fill="#0D0D0D" id="Vector_7"/>
<path d="M114.603 6.24818C114.603 6.08109 114.669 5.92083 114.788 5.80268C114.906 5.68453 115.066 5.61816 115.233 5.61816H125.439C130.628 5.61816 134.174 8.66428 134.174 13.5186V13.8556C134.174 18.7414 130.709 21.8568 125.439 21.8568H120.629V28.4248C120.629 28.5919 120.563 28.7521 120.445 28.8703C120.326 28.9884 120.166 29.0548 119.999 29.0548H115.233C115.066 29.0548 114.906 28.9884 114.788 28.8703C114.669 28.7521 114.603 28.5919 114.603 28.4248V6.24818ZM124.466 16.8766C126.542 16.8766 128.126 15.6165 128.126 13.7611V13.654C128.126 11.8805 126.611 10.6268 124.601 10.6268H120.629V16.8766H124.466Z" fill="#0D0D0D" id="Vector_8"/>
<path d="M74.8228 24.34C74.8228 27.2696 77.242 29.5439 80.6504 29.5439C83.3091 29.5439 84.7077 28.413 85.9331 27.4554C85.9896 27.839 86.0738 28.218 86.1851 28.5895C86.2233 28.7203 86.3029 28.8353 86.4119 28.9171C86.521 28.9989 86.6536 29.0431 86.7899 29.0431H90.9512C91.1183 29.0431 91.2785 28.9767 91.3967 28.8585C91.5148 28.7404 91.5812 28.5801 91.5812 28.4131V18.6226C91.5812 14.1873 88.6485 11.305 84.021 11.305H83.5548C80.9742 11.29 78.4293 11.9076 76.1426 13.1036C76.0661 13.1441 75.9987 13.2 75.9446 13.2677C75.8906 13.3354 75.8511 13.4135 75.8287 13.4972C75.8062 13.5809 75.8012 13.6683 75.814 13.7539C75.8269 13.8396 75.8572 13.9217 75.9032 13.9951L77.7618 16.9814C77.8426 17.1098 77.9671 17.2048 78.1124 17.2488C78.2577 17.2928 78.4139 17.2828 78.5525 17.2208C80.3575 16.3986 81.7907 16.1057 83.0886 16.1057C84.7896 16.1057 85.7882 17.1326 85.7882 18.8683H84.588C77.8468 18.8683 74.8228 20.4874 74.8228 24.34ZM79.9353 24.1132C79.9353 22.6389 82.3137 22.1696 85.2149 22.1696H85.7819V24.0596C85.3094 24.5587 84.7398 24.9559 84.1082 25.2268C83.4765 25.4976 82.7962 25.6364 82.1089 25.6347C80.9843 25.6221 79.9227 25.1338 79.9227 24.1132H79.9353Z" fill="#0D0D0D" id="Vector_9"/>
<path d="M135.555 24.3429C135.555 27.2724 137.974 29.5468 141.382 29.5468C144.041 29.5468 145.44 28.4159 146.665 27.4583C146.722 27.8419 146.806 28.2209 146.917 28.5923C146.955 28.7232 147.035 28.8381 147.144 28.9199C147.253 29.0017 147.386 29.0459 147.522 29.0459H151.683C151.85 29.0459 152.01 28.9796 152.129 28.8614C152.247 28.7433 152.313 28.583 152.313 28.4159V18.6255C152.313 14.1901 149.38 11.3078 144.753 11.3078H144.28C141.703 11.2948 139.162 11.9123 136.878 13.1065C136.801 13.147 136.734 13.2028 136.68 13.2706C136.626 13.3383 136.586 13.4164 136.564 13.5001C136.541 13.5837 136.536 13.6711 136.549 13.7568C136.562 13.8425 136.592 13.9246 136.638 13.998L138.497 16.9843C138.578 17.1135 138.703 17.2089 138.849 17.253C138.995 17.297 139.152 17.2866 139.291 17.2237C141.093 16.4015 142.526 16.1085 143.824 16.1085C145.525 16.1085 146.523 17.1355 146.523 18.8712H145.323C138.591 18.8712 135.555 20.4903 135.555 24.3429ZM140.667 24.1161C140.667 22.6418 143.049 22.1725 145.947 22.1725H146.514V24.0625C146.042 24.5626 145.473 24.9605 144.841 25.2314C144.209 25.5024 143.528 25.6406 142.841 25.6376C141.729 25.625 140.658 25.1367 140.658 24.1161H140.667Z" fill="#0D0D0D" id="Vector_10"/>
<path d="M161.939 22.4497L164.503 12.1237C164.537 11.9871 164.615 11.8658 164.726 11.779C164.837 11.6922 164.973 11.645 165.114 11.6449H169.417C169.558 11.645 169.695 11.6922 169.805 11.779C169.916 11.8658 169.995 11.9871 170.028 12.1237L172.608 22.4529C172.625 22.5227 172.666 22.5846 172.723 22.6282C172.781 22.6717 172.851 22.6944 172.923 22.6923C173 22.693 173.074 22.6659 173.132 22.6161C173.19 22.5663 173.228 22.497 173.238 22.4214L174.602 12.193C174.622 12.0405 174.697 11.9006 174.813 11.7996C174.929 11.6986 175.078 11.6436 175.232 11.6449H179.715C179.81 11.6428 179.904 11.6622 179.991 11.7018C180.077 11.7414 180.154 11.8001 180.215 11.8734C180.275 11.9468 180.318 12.0329 180.341 12.1254C180.364 12.2178 180.365 12.3142 180.345 12.4072L176.88 28.5514C176.85 28.6953 176.77 28.8241 176.655 28.9156C176.54 29.007 176.397 29.0554 176.25 29.0523H170.652C170.515 29.0521 170.382 29.0074 170.273 28.925C170.164 28.8426 170.085 28.727 170.047 28.5955L167.332 19.1453H167.2L164.484 28.5955C164.447 28.727 164.367 28.8426 164.258 28.925C164.149 29.0074 164.016 29.0521 163.879 29.0523H158.269C158.122 29.0554 157.979 29.007 157.864 28.9156C157.749 28.8241 157.669 28.6953 157.639 28.5514L154.199 12.4041C154.179 12.3111 154.18 12.2147 154.203 12.1222C154.226 12.0298 154.269 11.9436 154.329 11.8703C154.39 11.7969 154.467 11.7382 154.553 11.6987C154.64 11.6591 154.734 11.6396 154.829 11.6418H159.324C159.478 11.6405 159.627 11.6955 159.743 11.7965C159.859 11.8974 159.934 12.0374 159.954 12.1899L161.318 22.4182C161.329 22.4939 161.367 22.5631 161.425 22.613C161.483 22.6628 161.557 22.6899 161.633 22.6891C161.703 22.686 161.77 22.6613 161.824 22.6184C161.879 22.5754 161.919 22.5165 161.939 22.4497Z" fill="#0D0D0D" id="Vector_11"/>
</g>
</svg>